<?xml version="1.0" encoding="UTF-8"?>
<!DOCTYPE svg PUBLIC "-//W3C//DTD SVG 1.1//EN" "http://www.w3.org/Graphics/SVG/1.1/DTD/svg11.dtd">
<!-- Creator: CorelDRAW 2020 (64 Bit) -->
<svg xmlns="http://www.w3.org/2000/svg" xml:space="preserve" width="29.6334mm" height="8.4656mm" version="1.1" style="shape-rendering:geometricPrecision; text-rendering:geometricPrecision; image-rendering:optimizeQuality; fill-rule:evenodd; clip-rule:evenodd"
viewBox="0 0 465.74 133.05"
 xmlns:xlink="http://www.w3.org/1999/xlink"
 xmlns:xodm="http://www.corel.com/coreldraw/odm/2003">
 <defs>
  <style type="text/css">
   <![CDATA[
    .fil1 {fill:#FEFEFE;fill-rule:nonzero}
    .fil0 {fill:#2E2E2E;fill-rule:nonzero}
   ]]>
  </style>
 </defs>
 <g id="Camada_x0020_1">
  <metadata id="CorelCorpID_0Corel-Layer"/>
  <g id="_2348851465200">
   <path class="fil0" d="M465.74 119.81c0,7.41 -5.95,13.24 -13.37,13.24l-439.32 0c-7.42,0 -13.05,-5.66 -13.05,-13.07l0 -106.94c0,-7.41 5.63,-13.05 13.05,-13.05l439.32 0c7.42,0 13.31,5.63 13.31,13.05l0 106.94 0.06 -0.17z"/>
   <path class="fil1" d="M101.99 65.77c-0.1,-11.28 9.24,-16.77 9.67,-17.03 -5.29,-7.72 -13.49,-8.77 -16.37,-8.85 -6.89,-0.72 -13.57,4.13 -17.07,4.13 -3.58,0 -8.99,-4.05 -14.81,-3.94 -7.49,0.12 -14.51,4.46 -18.35,11.19 -7.93,13.73 -2.01,33.92 5.58,45.03 3.81,5.43 8.25,11.51 14.06,11.29 5.69,-0.24 7.81,-3.62 14.68,-3.62 6.81,0 8.8,3.62 14.73,3.49 6.1,-0.1 9.95,-5.46 13.61,-10.95 4.4,-6.23 6.16,-12.37 6.23,-12.68 -0.14,-0.05 -11.86,-4.52 -11.97,-18.05z"/>
   <path class="fil1" d="M90.78 32.58c3.06,-3.83 5.16,-9.04 4.57,-14.32 -4.43,0.19 -9.96,3.06 -13.15,6.81 -2.82,3.3 -5.35,8.71 -4.7,13.79 4.98,0.37 10.08,-2.51 13.28,-6.28z"/>
   <path class="fil1" d="M184.33 106.81l-7.95 0 -4.36 -13.69 -15.13 0 -4.15 13.69 -7.74 0 15.01 -46.6 9.26 0 15.07 46.6zm-13.61 -19.43l0 0 -3.94 -12.17c-0.42,-1.24 -1.2,-4.17 -2.35,-8.77l-0.14 0c-0.46,1.98 -1.2,4.91 -2.22,8.77l-3.87 12.17 12.52 0z"/>
   <path class="fil1" d="M222.9 89.59c0,5.71 -1.54,10.23 -4.63,13.55 -2.77,2.95 -6.2,4.42 -10.3,4.42 -4.43,0 -7.61,-1.59 -9.55,-4.77l-0.13 0 0 17.7 -7.47 0 0 -36.22c0,-3.59 -0.09,-7.28 -0.28,-11.06l6.56 0 0.42 5.32 0.14 0c2.49,-4.01 6.27,-6.02 11.34,-6.02 3.96,0 7.27,1.57 9.92,4.7 2.65,3.14 3.97,7.26 3.97,12.37zm-7.6 0.27l0 0c0,-3.27 -0.74,-5.97 -2.21,-8.09 -1.62,-2.21 -3.78,-3.32 -6.5,-3.32 -1.85,0 -3.52,0.62 -5.01,1.83 -1.5,1.23 -2.48,2.83 -2.94,4.81 -0.23,0.92 -0.34,1.68 -0.34,2.27l0 5.6c0,2.44 0.74,4.5 2.24,6.18 1.5,1.69 3.45,2.52 5.85,2.52 2.81,0 5,-1.08 6.56,-3.25 1.57,-2.17 2.35,-5.02 2.35,-8.58z"/>
   <path class="fil1" d="M261.55 89.59c0,5.71 -1.54,10.23 -4.63,13.55 -2.77,2.95 -6.19,4.42 -10.3,4.42 -4.42,0 -7.6,-1.59 -9.54,-4.77l-0.14 0 0 17.7 -7.47 0 0 -36.22c0,-3.59 -0.1,-7.28 -0.28,-11.06l6.56 0 0.42 5.32 0.14 0c2.48,-4.01 6.26,-6.02 11.33,-6.02 3.96,0 7.27,1.57 9.92,4.7 2.65,3.14 3.97,7.26 3.97,12.37zm-7.6 0.27l0 0c0,-3.27 -0.74,-5.97 -2.22,-8.09 -1.62,-2.21 -3.78,-3.32 -6.5,-3.32 -1.85,0 -3.52,0.62 -5.01,1.83 -1.5,1.23 -2.48,2.83 -2.93,4.81 -0.24,0.92 -0.35,1.68 -0.35,2.27l0 5.6c0,2.44 0.74,4.5 2.24,6.18 1.5,1.69 3.44,2.52 5.85,2.52 2.81,0 5,-1.08 6.56,-3.25 1.56,-2.17 2.35,-5.02 2.35,-8.58z"/>
   <path class="fil1" d="M304.76 93.74c0,3.96 -1.37,7.19 -4.14,9.68 -3.03,2.72 -7.26,4.08 -12.69,4.08 -5.01,0 -9.04,-0.97 -12.08,-2.9l1.73 -6.22c3.28,1.98 6.87,2.97 10.79,2.97 2.81,0 5,-0.63 6.57,-1.9 1.56,-1.27 2.34,-2.97 2.34,-5.09 0,-1.89 -0.64,-3.49 -1.93,-4.78 -1.29,-1.3 -3.44,-2.49 -6.44,-3.6 -8.16,-3.05 -12.23,-7.5 -12.23,-13.37 0,-3.83 1.42,-6.97 4.29,-9.41 2.85,-2.45 6.66,-3.68 11.41,-3.68 4.24,0 7.77,0.74 10.57,2.21l-1.86 6.08c-2.63,-1.42 -5.6,-2.14 -8.92,-2.14 -2.63,0 -4.68,0.64 -6.15,1.93 -1.24,1.15 -1.86,2.56 -1.86,4.22 0,1.84 0.71,3.37 2.14,4.56 1.24,1.11 3.5,2.31 6.78,3.6 4.01,1.61 6.95,3.5 8.85,5.67 1.89,2.17 2.83,4.87 2.83,8.09z"/>
   <path class="fil1" d="M329.44 78.81l-8.23 0 0 16.32c0,4.15 1.45,6.22 4.36,6.22 1.33,0 2.44,-0.11 3.31,-0.34l0.2 5.67c-1.46,0.55 -3.41,0.83 -5.8,0.83 -2.95,0 -5.26,-0.9 -6.91,-2.69 -1.66,-1.8 -2.49,-4.82 -2.49,-9.06l0 -16.94 -4.91 0 0 -5.6 4.91 0 0 -6.15 7.33 -2.22 0 8.36 8.23 0 0 5.6z"/>
   <path class="fil1" d="M366.56 89.73c0,5.16 -1.47,9.4 -4.42,12.72 -3.09,3.41 -7.2,5.11 -12.3,5.11 -4.94,0 -8.86,-1.63 -11.79,-4.91 -2.93,-3.27 -4.39,-7.4 -4.39,-12.37 0,-5.21 1.51,-9.48 4.53,-12.79 3.01,-3.32 7.08,-4.98 12.2,-4.98 4.93,0 8.9,1.64 11.89,4.91 2.86,3.19 4.29,7.28 4.29,12.31zm-7.75 0.24l0 0c0,-3.1 -0.67,-5.75 -2.01,-7.97 -1.56,-2.68 -3.8,-4.02 -6.7,-4.02 -3,0 -5.28,1.34 -6.84,4.02 -1.34,2.22 -2,4.92 -2,8.12 0,3.1 0.66,5.75 2,7.97 1.61,2.68 3.87,4.02 6.78,4.02 2.85,0 5.09,-1.36 6.7,-4.09 1.38,-2.26 2.07,-4.94 2.07,-8.04z"/>
   <path class="fil1" d="M390.82 79.77c-0.74,-0.13 -1.52,-0.21 -2.35,-0.21 -2.62,0 -4.66,1 -6.09,2.98 -1.24,1.75 -1.86,3.96 -1.86,6.63l0 17.63 -7.46 0 0.06 -23.02c0,-3.87 -0.1,-7.4 -0.27,-10.58l6.5 0 0.28 6.43 0.2 0c0.79,-2.21 2.04,-3.99 3.74,-5.32 1.65,-1.2 3.46,-1.8 5.4,-1.8 0.69,0 1.31,0.05 1.86,0.13l0 7.12z"/>
   <path class="fil1" d="M424.21 88.42c0,1.34 -0.09,2.46 -0.27,3.39l-22.39 0c0.08,3.32 1.17,5.86 3.25,7.61 1.88,1.57 4.33,2.34 7.33,2.34 3.31,0 6.33,-0.53 9.05,-1.59l1.17 5.19c-3.18,1.38 -6.93,2.08 -11.27,2.08 -5.2,0 -9.3,-1.54 -12.27,-4.6 -2.97,-3.06 -4.46,-7.18 -4.46,-12.34 0,-5.07 1.38,-9.29 4.15,-12.65 2.9,-3.59 6.82,-5.39 11.75,-5.39 4.84,0 8.51,1.79 11,5.39 1.97,2.86 2.96,6.38 2.96,10.58zm-7.12 -1.94l0 0c0.05,-2.21 -0.43,-4.12 -1.45,-5.74 -1.29,-2.07 -3.28,-3.11 -5.95,-3.11 -2.44,0 -4.42,1.02 -5.94,3.04 -1.24,1.61 -1.98,3.55 -2.21,5.8l15.55 0z"/>
   <path class="fil1" d="M167.95 31.54c0,4.12 -1.23,7.23 -3.7,9.31 -2.29,1.92 -5.54,2.89 -9.74,2.89 -2.08,0 -3.88,-0.09 -5.37,-0.28l0 -22.52c1.95,-0.32 4.05,-0.47 6.32,-0.47 4.01,0 7.03,0.87 9.07,2.62 2.28,1.97 3.42,4.79 3.42,8.45zm-3.86 0.11l0 0c0,-2.68 -0.71,-4.72 -2.13,-6.15 -1.42,-1.43 -3.48,-2.14 -6.2,-2.14 -1.16,0 -2.14,0.08 -2.95,0.24l0 17.12c0.45,0.07 1.28,0.1 2.48,0.1 2.81,0 4.98,-0.78 6.5,-2.34 1.53,-1.56 2.3,-3.84 2.3,-6.82z"/>
   <path class="fil1" d="M188.46 35.15c0,2.53 -0.73,4.62 -2.18,6.24 -1.52,1.68 -3.53,2.52 -6.05,2.52 -2.43,0 -4.35,-0.81 -5.79,-2.42 -1.44,-1.6 -2.15,-3.63 -2.15,-6.08 0,-2.56 0.74,-4.66 2.23,-6.29 1.48,-1.63 3.48,-2.44 5.99,-2.44 2.43,0 4.37,0.81 5.84,2.41 1.41,1.56 2.11,3.58 2.11,6.05zm-3.8 0.12l0 0c0,-1.52 -0.33,-2.82 -0.99,-3.92 -0.77,-1.32 -1.87,-1.98 -3.29,-1.98 -1.47,0 -2.6,0.66 -3.36,1.98 -0.66,1.09 -0.99,2.42 -0.99,3.98 0,1.52 0.33,2.83 0.99,3.93 0.79,1.31 1.89,1.97 3.33,1.97 1.4,0 2.5,-0.67 3.29,-2.01 0.68,-1.11 1.02,-2.43 1.02,-3.95z"/>
   <path class="fil1" d="M215.98 27.03l-5.17 16.51 -3.36 0 -2.14 -7.16c-0.54,-1.79 -0.98,-3.57 -1.32,-5.33l-0.06 0c-0.32,1.81 -0.77,3.59 -1.33,5.33l-2.27 7.16 -3.4 0 -4.85 -16.51 3.77 0 1.86 7.85c0.45,1.86 0.83,3.62 1.12,5.3l0.07 0c0.27,-1.38 0.72,-3.14 1.36,-5.27l2.34 -7.88 2.99 0 2.24 7.71c0.55,1.88 0.99,3.69 1.32,5.43l0.1 0c0.25,-1.7 0.62,-3.51 1.13,-5.43l2.01 -7.71 3.6 0z"/>
   <path class="fil1" d="M234.99 43.53l-3.67 0 0 -9.45c0,-2.92 -1.11,-4.37 -3.33,-4.37 -1.09,0 -1.96,0.4 -2.65,1.2 -0.67,0.81 -1.02,1.75 -1.02,2.83l0 9.79 -3.67 0 0 -11.78c0,-1.45 -0.04,-3.02 -0.13,-4.72l3.22 0 0.17 2.58 0.1 0c0.42,-0.8 1.06,-1.47 1.9,-1.99 0.99,-0.62 2.11,-0.94 3.32,-0.94 1.54,0 2.82,0.51 3.84,1.5 1.27,1.22 1.9,3.05 1.9,5.47l0 9.88z"/>
   <polygon class="fil1" points="245.12,43.53 241.44,43.53 241.44,19.45 245.12,19.45 "/>
   <path class="fil1" d="M266.72 35.15c0,2.53 -0.73,4.62 -2.18,6.24 -1.51,1.68 -3.53,2.52 -6.05,2.52 -2.42,0 -4.35,-0.81 -5.79,-2.42 -1.43,-1.6 -2.15,-3.63 -2.15,-6.08 0,-2.56 0.74,-4.66 2.22,-6.29 1.48,-1.63 3.48,-2.44 6,-2.44 2.42,0 4.37,0.81 5.84,2.41 1.41,1.56 2.11,3.58 2.11,6.05zm-3.8 0.12l0 0c0,-1.52 -0.33,-2.82 -0.99,-3.92 -0.77,-1.32 -1.87,-1.98 -3.29,-1.98 -1.47,0 -2.6,0.66 -3.37,1.98 -0.65,1.09 -0.98,2.42 -0.98,3.98 0,1.52 0.33,2.83 0.98,3.93 0.79,1.31 1.9,1.97 3.33,1.97 1.41,0 2.51,-0.67 3.3,-2.01 0.67,-1.11 1.02,-2.43 1.02,-3.95z"/>
   <path class="fil1" d="M284.48 43.53l-3.3 0 -0.27 -1.9 -0.11 0c-1.13,1.52 -2.74,2.27 -4.82,2.27 -1.57,0 -2.83,-0.5 -3.78,-1.5 -0.86,-0.9 -1.28,-2.02 -1.28,-3.35 0,-2.01 0.84,-3.56 2.53,-4.62 1.68,-1.07 4.05,-1.58 7.11,-1.56l0 -0.31c0,-2.17 -1.14,-3.26 -3.42,-3.26 -1.63,0 -3.07,0.41 -4.31,1.22l-0.74 -2.41c1.54,-0.95 3.42,-1.43 5.65,-1.43 4.33,0 6.48,2.27 6.48,6.83l0 6.08c0,1.65 0.08,2.97 0.24,3.94zm-3.81 -5.67l0 0 0 -2.54c-4.05,-0.07 -6.08,1.05 -6.08,3.33 0,0.86 0.24,1.5 0.72,1.93 0.47,0.43 1.07,0.64 1.78,0.64 0.81,0 1.55,-0.25 2.25,-0.76 0.69,-0.51 1.11,-1.16 1.26,-1.95 0.05,-0.19 0.07,-0.4 0.07,-0.65z"/>
   <path class="fil1" d="M305.33 43.53l-3.26 0 -0.17 -2.65 -0.1 0c-1.04,2.01 -2.81,3.03 -5.29,3.03 -2,0 -3.65,-0.78 -4.96,-2.35 -1.31,-1.56 -1.97,-3.59 -1.97,-6.08 0,-2.68 0.71,-4.83 2.13,-6.49 1.38,-1.54 3.08,-2.31 5.1,-2.31 2.22,0 3.77,0.74 4.65,2.24l0.08 0 0 -9.48 3.66 0 0 19.63c0,1.61 0.05,3.09 0.14,4.45zm-3.8 -6.96l0 0 0 -2.75c0,-0.47 -0.04,-0.86 -0.11,-1.16 -0.21,-0.88 -0.65,-1.63 -1.34,-2.23 -0.68,-0.6 -1.49,-0.9 -2.45,-0.9 -1.36,0 -2.44,0.54 -3.22,1.63 -0.79,1.09 -1.18,2.48 -1.18,4.17 0,1.64 0.38,2.97 1.13,3.98 0.8,1.09 1.86,1.63 3.2,1.63 1.21,0 2.18,-0.45 2.9,-1.36 0.71,-0.83 1.07,-1.84 1.07,-3.02z"/>
   <path class="fil1" d="M336.72 35.15c0,2.53 -0.73,4.62 -2.18,6.24 -1.51,1.68 -3.53,2.52 -6.04,2.52 -2.43,0 -4.36,-0.81 -5.79,-2.42 -1.43,-1.6 -2.15,-3.63 -2.15,-6.08 0,-2.56 0.74,-4.66 2.22,-6.29 1.49,-1.63 3.49,-2.44 5.99,-2.44 2.43,0 4.37,0.81 5.85,2.41 1.4,1.56 2.11,3.58 2.11,6.05zm-3.81 0.12l0 0c0,-1.52 -0.33,-2.82 -0.99,-3.92 -0.77,-1.32 -1.88,-1.98 -3.29,-1.98 -1.48,0 -2.6,0.66 -3.37,1.98 -0.66,1.09 -0.99,2.42 -0.99,3.98 0,1.52 0.33,2.83 0.99,3.93 0.79,1.31 1.9,1.97 3.33,1.97 1.4,0 2.5,-0.67 3.29,-2.01 0.69,-1.11 1.02,-2.43 1.02,-3.95z"/>
   <path class="fil1" d="M356.44 43.53l-3.67 0 0 -9.45c0,-2.92 -1.11,-4.37 -3.32,-4.37 -1.09,0 -1.98,0.4 -2.65,1.2 -0.68,0.81 -1.02,1.75 -1.02,2.83l0 9.79 -3.66 0 0 -11.78c0,-1.45 -0.05,-3.02 -0.14,-4.72l3.23 0 0.17 2.58 0.11 0c0.42,-0.8 1.05,-1.47 1.9,-1.99 0.99,-0.62 2.11,-0.94 3.33,-0.94 1.54,0 2.83,0.51 3.84,1.5 1.27,1.22 1.9,3.05 1.9,5.47l0 9.88z"/>
   <path class="fil1" d="M381.14 29.78l-4.04 0 0 8.02c0,2.04 0.71,3.05 2.14,3.05 0.65,0 1.19,-0.06 1.63,-0.17l0.1 2.78c-0.73,0.27 -1.68,0.41 -2.85,0.41 -1.45,0 -2.58,-0.44 -3.39,-1.32 -0.81,-0.89 -1.23,-2.36 -1.23,-4.45l0 -8.32 -2.42 0 0 -2.75 2.42 0 0 -3.02 3.6 -1.08 0 4.11 4.04 0 0 2.75z"/>
   <path class="fil1" d="M400.56 43.53l-3.66 0 0 -9.38c0,-2.96 -1.11,-4.44 -3.34,-4.44 -1.69,0 -2.86,0.86 -3.49,2.57 -0.12,0.36 -0.17,0.81 -0.17,1.32l0 9.93 -3.67 0 0 -24.08 3.67 0 0 9.95 0.07 0c1.15,-1.81 2.8,-2.72 4.95,-2.72 1.52,0 2.78,0.51 3.77,1.5 1.24,1.24 1.86,3.09 1.86,5.54l0 9.81z"/>
   <path class="fil1" d="M420.61 34.5c0,0.65 -0.05,1.21 -0.14,1.67l-11.01 0c0.04,1.63 0.57,2.87 1.59,3.73 0.93,0.77 2.13,1.16 3.6,1.16 1.64,0 3.12,-0.26 4.45,-0.78l0.57 2.55c-1.55,0.68 -3.4,1.02 -5.53,1.02 -2.55,0 -4.57,-0.75 -6.03,-2.25 -1.45,-1.51 -2.19,-3.53 -2.19,-6.07 0,-2.49 0.68,-4.56 2.04,-6.22 1.43,-1.77 3.36,-2.65 5.77,-2.65 2.38,0 4.18,0.88 5.4,2.65 0.97,1.4 1.47,3.14 1.47,5.2zm-3.5 -0.95l0 0c0.02,-1.09 -0.22,-2.03 -0.72,-2.82 -0.63,-1.02 -1.6,-1.53 -2.91,-1.53 -1.2,0 -2.17,0.5 -2.93,1.49 -0.6,0.8 -0.96,1.74 -1.08,2.85l7.64 0z"/>
  </g>
 </g>
</svg>
