<?xml version="1.0" encoding="UTF-8"?>
<!DOCTYPE svg PUBLIC "-//W3C//DTD SVG 1.1//EN" "http://www.w3.org/Graphics/SVG/1.1/DTD/svg11.dtd">
<!-- Creator: CorelDRAW 2020 (64 Bit) -->
<svg xmlns="http://www.w3.org/2000/svg" xml:space="preserve" width="29.6334mm" height="8.6782mm" version="1.1" style="shape-rendering:geometricPrecision; text-rendering:geometricPrecision; image-rendering:optimizeQuality; fill-rule:evenodd; clip-rule:evenodd"
viewBox="0 0 699.68 204.9"
 xmlns:xlink="http://www.w3.org/1999/xlink"
 xmlns:xodm="http://www.corel.com/coreldraw/odm/2003">
 <defs>
  <style type="text/css">
   <![CDATA[
    .str0 {stroke:white;stroke-width:1.8;stroke-miterlimit:22.9256}
    .fil0 {fill:black;fill-rule:nonzero}
    .fil1 {fill:#A5A5A5;fill-rule:nonzero}
    .fil2 {fill:white;fill-rule:nonzero}
    .fil4 {fill:url(#id0);fill-rule:nonzero}
    .fil3 {fill:url(#id1);fill-rule:nonzero}
    .fil5 {fill:url(#id2);fill-rule:nonzero}
    .fil6 {fill:url(#id3);fill-rule:nonzero}
   ]]>
  </style>
  <linearGradient id="id0" gradientUnits="userSpaceOnUse" x1="175.36" y1="102.45" x2="49.96" y2="102.45">
   <stop offset="0" style="stop-opacity:1; stop-color:#FFDF00"/>
   <stop offset="0.4" style="stop-opacity:1; stop-color:#FFBC00"/>
   <stop offset="0.768627" style="stop-opacity:1; stop-color:orange"/>
   <stop offset="1" style="stop-opacity:1; stop-color:#FF9C00"/>
  </linearGradient>
  <linearGradient id="id1" gradientUnits="userSpaceOnUse" x1="173.86" y1="190.1" x2="42.04" y2="59.81">
   <stop offset="0" style="stop-opacity:1; stop-color:#00A0FF"/>
   <stop offset="0" style="stop-opacity:1; stop-color:#00A1FF"/>
   <stop offset="0.258824" style="stop-opacity:1; stop-color:#00BDFF"/>
   <stop offset="0.509804" style="stop-opacity:1; stop-color:#00D1FF"/>
   <stop offset="0.760784" style="stop-opacity:1; stop-color:#00DFFF"/>
   <stop offset="1" style="stop-opacity:1; stop-color:#00E2FF"/>
  </linearGradient>
  <linearGradient id="id2" gradientUnits="userSpaceOnUse" x1="55.71" y1="94.26" x2="-356.81" y2="-313.46">
   <stop offset="0" style="stop-opacity:1; stop-color:#FF3A44"/>
   <stop offset="1" style="stop-opacity:1; stop-color:#C31162"/>
  </linearGradient>
  <linearGradient id="id3" gradientUnits="userSpaceOnUse" x1="-261.87" y1="424.53" x2="-77.74" y2="242.55">
   <stop offset="0" style="stop-opacity:1; stop-color:#31A070"/>
   <stop offset="0.0588235" style="stop-opacity:1; stop-color:#2DA770"/>
   <stop offset="0.470588" style="stop-opacity:1; stop-color:#15CF74"/>
   <stop offset="0.8" style="stop-opacity:1; stop-color:#05E675"/>
   <stop offset="1" style="stop-opacity:1; stop-color:#00EF75"/>
  </linearGradient>
 </defs>
 <g id="Camada_x0020_1">
  <metadata id="CorelCorpID_0Corel-Layer"/>
  <g id="_2348731402592">
   <path class="fil0" d="M673.76 204.9l-647.85 0c-14.24,0 -25.91,-11.53 -25.91,-25.61l0 -153.67c0,-14.08 11.67,-25.61 25.91,-25.61l647.85 0c14.24,0 25.91,11.53 25.91,25.61l0 153.67c0,14.08 -11.67,25.61 -25.91,25.61z"/>
   <path class="fil1" d="M673.76 4.1c12,0 21.76,9.65 21.76,21.51l0 153.67c0,11.86 -9.76,21.51 -21.76,21.51l-647.85 0c-12,0 -21.76,-9.65 -21.76,-21.51l0 -153.67c0,-11.86 9.76,-21.51 21.76,-21.51l647.85 0zm0 -4.1l0 0 -647.85 0c-14.24,0 -25.91,11.53 -25.91,25.61l0 153.67c0,14.08 11.67,25.61 25.91,25.61l647.85 0c14.24,0 25.91,-11.53 25.91,-25.61l0 -153.67c0,-14.08 -11.67,-25.61 -25.91,-25.61z"/>
   <g>
    <path class="fil2 str0" d="M245.76 52.48c0,4.28 -1.3,7.7 -3.85,10.26 -2.94,3.03 -6.76,4.55 -11.44,4.55 -4.48,0 -8.3,-1.55 -11.44,-4.6 -3.14,-3.1 -4.71,-6.9 -4.71,-11.45 0,-4.55 1.57,-8.36 4.71,-11.43 3.14,-3.08 6.96,-4.63 11.44,-4.63 2.23,0 4.35,0.45 6.38,1.3 2.02,0.85 3.66,2 4.86,3.42l-2.71 2.7c-2.08,-2.43 -4.91,-3.62 -8.53,-3.62 -3.27,0 -6.1,1.13 -8.5,3.4 -2.38,2.28 -3.57,5.23 -3.57,8.86 0,3.62 1.19,6.6 3.57,8.88 2.4,2.25 5.23,3.4 8.5,3.4 3.46,0 6.38,-1.15 8.68,-3.43 1.51,-1.5 2.38,-3.58 2.6,-6.23l-11.28 0 0 -3.7 15.06 0c0.18,0.8 0.23,1.57 0.23,2.32z"/>
   </g>
   <g>
    <polygon class="fil2 str0" points="269.64,39.64 255.49,39.64 255.49,49.38 268.25,49.38 268.25,53.08 255.49,53.08 255.49,62.81 269.64,62.81 269.64,66.58 251.5,66.58 251.5,35.87 269.64,35.87 "/>
   </g>
   <g>
    <polygon class="fil2 str0" points="286.5,66.58 282.49,66.58 282.49,39.64 273.82,39.64 273.82,35.87 295.18,35.87 295.18,39.64 286.5,39.64 "/>
   </g>
   <g>
    <polygon class="fil2 str0" points="310.64,66.58 310.64,35.87 314.63,35.87 314.63,66.58 "/>
   </g>
   <g>
    <polygon class="fil2 str0" points="332.35,66.58 328.38,66.58 328.38,39.64 319.67,39.64 319.67,35.87 341.06,35.87 341.06,39.64 332.35,39.64 "/>
   </g>
   <g>
    <path class="fil2 str0" d="M381.5 62.63c-3.06,3.1 -6.86,4.65 -11.39,4.65 -4.55,0 -8.35,-1.55 -11.42,-4.65 -3.06,-3.1 -4.58,-6.9 -4.58,-11.4 0,-4.5 1.53,-8.31 4.58,-11.41 3.06,-3.1 6.86,-4.65 11.42,-4.65 4.5,0 8.3,1.55 11.36,4.68 3.08,3.13 4.61,6.9 4.61,11.38 0,4.5 -1.53,8.3 -4.58,11.4zm-19.84 -2.58l0 0c2.31,2.3 5.11,3.45 8.45,3.45 3.32,0 6.15,-1.15 8.43,-3.45 2.3,-2.3 3.47,-5.25 3.47,-8.83 0,-3.58 -1.17,-6.53 -3.47,-8.83 -2.28,-2.3 -5.11,-3.45 -8.43,-3.45 -3.34,0 -6.15,1.16 -8.45,3.45 -2.3,2.3 -3.47,5.25 -3.47,8.83 0,3.57 1.17,6.53 3.47,8.83z"/>
   </g>
   <g>
    <polygon class="fil2 str0" points="391.69,66.58 391.69,35.87 396.55,35.87 411.66,59.76 411.83,59.76 411.66,53.85 411.66,35.87 415.66,35.87 415.66,66.58 411.49,66.58 395.67,41.52 395.49,41.52 395.67,47.45 395.67,66.58 "/>
   </g>
   <path class="fil2" d="M353.13 111.43c-12.17,0 -22.11,9.15 -22.11,21.79 0,12.53 9.94,21.78 22.11,21.78 12.2,0 22.14,-9.25 22.14,-21.78 0,-12.63 -9.95,-21.79 -22.14,-21.79zm0 34.99l0 0c-6.68,0 -12.43,-5.45 -12.43,-13.2 0,-7.86 5.75,-13.21 12.43,-13.21 6.68,0 12.45,5.35 12.45,13.21 0,7.76 -5.77,13.2 -12.45,13.2zm-48.25 -34.99l0 0c-12.2,0 -22.12,9.15 -22.12,21.79 0,12.53 9.92,21.78 22.12,21.78 12.19,0 22.11,-9.25 22.11,-21.78 0,-12.63 -9.93,-21.79 -22.11,-21.79zm0 34.99l0 0c-6.69,0 -12.45,-5.45 -12.45,-13.2 0,-7.86 5.77,-13.21 12.45,-13.21 6.68,0 12.42,5.35 12.42,13.21 0,7.76 -5.74,13.2 -12.42,13.2zm-57.43 -28.32l0 0 0 9.26 22.37 0c-0.66,5.18 -2.4,8.98 -5.08,11.63 -3.27,3.2 -8.35,6.76 -17.29,6.76 -13.77,0 -24.55,-10.98 -24.55,-24.59 0,-13.61 10.78,-24.59 24.55,-24.59 7.44,0 12.86,2.88 16.86,6.6l6.6 -6.52c-5.6,-5.28 -13.03,-9.33 -23.46,-9.33 -18.88,0 -34.74,15.18 -34.74,33.84 0,18.66 15.87,33.84 34.74,33.84 10.2,0 17.86,-3.3 23.89,-9.5 6.17,-6.1 8.09,-14.68 8.09,-21.61 0,-2.15 -0.18,-4.13 -0.51,-5.78l-31.48 0zm234.82 7.18l0 0c-1.82,-4.87 -7.44,-13.85 -18.88,-13.85 -11.34,0 -20.78,8.83 -20.78,21.79 0,12.2 9.34,21.78 21.86,21.78 10.13,0 15.97,-6.1 18.37,-9.65l-7.51 -4.95c-2.51,3.62 -5.92,6.02 -10.86,6.02 -4.9,0 -8.42,-2.22 -10.67,-6.6l29.48 -12.05 -1.02 -2.48 0 0zm-30.06 7.26l0 0c-0.25,-8.4 6.61,-12.7 11.51,-12.7 3.85,0 7.12,1.9 8.2,4.62l-19.71 8.08zm-23.96 21.14l0 0 9.69 0 0 -64.03 -9.69 0 0 64.03zm-15.87 -37.4l0 0 -0.33 0c-2.18,-2.55 -6.33,-4.85 -11.59,-4.85 -11.04,0 -21.13,9.58 -21.13,21.86 0,12.21 10.09,21.71 21.13,21.71 5.26,0 9.41,-2.32 11.59,-4.95l0.33 0 0 3.12c0,8.33 -4.5,12.8 -11.77,12.8 -5.92,0 -9.6,-4.22 -11.11,-7.78l-8.43 3.48c2.43,5.78 8.86,12.88 19.54,12.88 11.36,0 20.95,-6.6 20.95,-22.69l0 -39.12 -9.18 0 0 3.53zm-11.09 30.14l0 0c-6.68,0 -12.27,-5.52 -12.27,-13.13 0,-7.68 5.59,-13.28 12.27,-13.28 6.59,0 11.77,5.6 11.77,13.28 0,7.61 -5.19,13.13 -11.77,13.13zm126.36 -56.78l0 0 -23.18 0 0 64.03 9.67 0 0 -24.26 13.51 0c10.73,0 21.26,-7.68 21.26,-19.89 0,-12.2 -10.55,-19.88 -21.26,-19.88zm0.25 30.86l0 0 -13.77 0 0 -21.96 13.77 0c7.22,0 11.34,5.92 11.34,10.98 0,4.95 -4.12,10.98 -11.34,10.98zm59.75 -9.2l0 0c-6.98,0 -14.25,3.05 -17.23,9.81l8.58 3.55c1.84,-3.55 5.24,-4.71 8.83,-4.71 5.02,0 10.1,2.97 10.18,8.24l0 0.67c-1.75,-1 -5.49,-2.48 -10.1,-2.48 -9.24,0 -18.65,5.02 -18.65,14.41 0,8.58 7.57,14.11 16.07,14.11 6.5,0 10.09,-2.9 12.35,-6.28l0.33 0 0 4.95 9.34 0 0 -24.56c0,-11.36 -8.58,-17.71 -19.69,-17.71zm-1.17 35.09l0 0c-3.16,0 -7.57,-1.55 -7.57,-5.42 0,-4.96 5.49,-6.86 10.25,-6.86 4.26,0 6.25,0.93 8.84,2.15 -0.76,5.93 -5.92,10.13 -11.52,10.13zm54.86 -33.69l0 0 -11.11 27.76 -0.33 0 -11.49 -27.76 -10.42 0 17.26 38.8 -9.85 21.58 10.1 0 26.59 -60.37 -10.75 0zm-87.13 40.97l0 0 9.69 0 0 -64.03 -9.69 0 0 64.03z"/>
   <g>
    <path class="fil3" d="M54.08 38.62c-1.52,1.57 -2.4,4.02 -2.4,7.2l0 113.28c0,3.18 0.88,5.63 2.4,7.21l0.38 0.34 64.23 -63.45 0 -1.5 -64.23 -63.45 -0.38 0.37z"/>
   </g>
   <g>
    <path class="fil4" d="M140.07 124.36l-21.38 -21.16 0 -1.5 21.41 -21.16 0.48 0.28 25.36 14.26c7.23,4.04 7.23,10.7 0,14.78l-25.36 14.23 -0.51 0.27z"/>
   </g>
   <g>
    <path class="fil5" d="M140.58 124.09l-21.89 -21.63 -64.6 63.86c2.4,2.49 6.32,2.8 10.78,0.3l75.71 -42.52z"/>
   </g>
   <g>
    <path class="fil6" d="M140.58 80.82l-75.71 -42.53c-4.46,-2.47 -8.37,-2.17 -10.78,0.33l64.6 63.83 21.89 -21.63z"/>
   </g>
  </g>
 </g>
</svg>
