<?xml version="1.0" encoding="UTF-8"?>
<!DOCTYPE svg PUBLIC "-//W3C//DTD SVG 1.1//EN" "http://www.w3.org/Graphics/SVG/1.1/DTD/svg11.dtd">
<!-- Creator: CorelDRAW 2020 (64 Bit) -->
<svg xmlns="http://www.w3.org/2000/svg" xml:space="preserve" width="42.3333mm" height="11.9787mm" version="1.1" style="shape-rendering:geometricPrecision; text-rendering:geometricPrecision; image-rendering:optimizeQuality; fill-rule:evenodd; clip-rule:evenodd"
viewBox="0 0 3163.17 895.06"
 xmlns:xlink="http://www.w3.org/1999/xlink"
 xmlns:xodm="http://www.corel.com/coreldraw/odm/2003">
 <defs>
  <style type="text/css">
   <![CDATA[
    .fil0 {fill:#2A5584}
   ]]>
  </style>
 </defs>
 <g id="Camada_x0020_1">
  <metadata id="CorelCorpID_0Corel-Layer"/>
  <path class="fil0" d="M1743.99 860.27c-14.29,0 -23.93,-4.01 -32.2,-12.38 -43.02,-43.55 33.8,-137.73 65.66,-169.24 8.05,-7.97 10.03,-10.98 17.16,-19.55 5.81,-6.99 10.94,-14.05 20.2,-16.52 0,51.75 -0.43,92.65 -7.8,136.45 -5.89,35.03 -20.32,81.24 -63.03,81.24zm718.79 -456.36c0,47.57 -14.5,99.95 -35.13,127.5 -9.95,13.28 -31.64,30.62 -53.1,21.18 -63.57,-27.95 -58.71,-290.32 30.51,-290.32 61.53,0 57.73,98.59 57.73,141.64zm-789.6 23.61c0,-196.4 131.15,-212.39 131.15,-78.7 0,59.2 3.23,86.36 -16.04,143.96 -31.38,93.92 -115.11,90.6 -115.11,-65.27zm-375.13 -5.25c0,-35.48 5.26,-76.15 14.66,-103.35 8.76,-25.28 26.82,-56.65 58.78,-56.65 85.17,0 70.07,247.82 2.62,285.9 -61.53,34.77 -76.07,-69.99 -76.07,-125.9zm-186.26 -293.74c0,-21.47 2.77,-33.21 2.69,-52.42l2.56 -52.5c-23.75,-15.92 -50.53,-23.61 -81.31,-23.61 -6.37,9.5 -7.94,6.95 -9.97,21.5l-3.15 104.38 -89.19 -2.62c-10.86,16.24 -18.2,38.45 -13.11,60.33 38.47,8.97 97.07,-6.92 97.07,10.49l0 178.35c0,34.01 -43.61,121.94 -68.21,128.51 0,-13.32 2.62,-11.96 2.62,-23.6 0,-40.12 -29.12,-73.73 -52.07,-92.2 -10.66,-8.58 -69.1,-56.56 -81.72,-59.93 2.21,-8.26 9.83,-14.41 15.04,-21.68 65.57,-91.22 6.09,-126.32 -55.32,-91.97 -33.23,18.59 -69.58,78.05 -22.67,132 -4.53,8.56 -8.79,17.57 -13.1,26.25l-41.87 73.55c-11.39,19.91 -42.25,83.81 -68.32,83.81 -25.9,0 -14.58,-164.18 -13.11,-191.46 0.7,-13.06 2.53,-71.47 1.28,-77.28 -6.23,-29 -59.26,-63.59 -102.57,-44.98 -48.87,21 -78.94,98.64 -95.79,145.53 -4.82,13.4 -12.69,47.66 -23.28,55.41l2.62 -180.97c0,-16.01 -54.42,-32.73 -73.45,-23.6 -7.75,16.15 -1.47,189.77 -2.53,225.66 -0.4,12.93 -2.42,13.1 -2.79,26.05l0 57.88c0.37,12.58 2.14,11.99 2.7,23.51 1.12,23.35 -0.52,32.37 9.83,47.88 9.13,13.69 23.54,15.06 40.02,15.06 28.82,0 28.53,-8.44 32.59,-35.6 7.49,-50.09 21.75,-98.21 38.58,-145.05 11.37,-31.67 58.7,-143.71 91.47,-152.45 0,65.84 -5.25,122.58 -5.25,188.83 0,50.77 -1.88,144.26 57.71,144.26 69.57,0 123.89,-112.75 155.27,-164.74l38.85 -66.06c9.49,5.03 47.6,39.95 55.73,49.2 14.05,15.99 32.62,41.24 33.4,68.94 0.78,28.31 -18.55,59.21 -48.25,53.66 -21.98,-4.11 -55.5,-37.02 -69.73,-32.78 -13.87,9.3 -31.48,29.6 -31.48,52.45 0,37.29 123.48,53.85 185.44,22.8 21.74,-10.89 40.47,-25.49 55.53,-44.14 16.66,-20.64 48.09,-60.79 50.2,-86.2 9.66,7.1 5.1,56.26 28.93,96.98 61.23,104.67 157.8,24.34 175.68,-52.38 5.45,3.99 14.44,42.61 37.46,70.07 17.7,21.11 43.7,32.21 72.72,32.21 48.72,0 81.19,-29.92 105.3,-65.21 5.17,-7.59 2.97,-8.23 10.12,-13.47 3.46,41.6 39.06,78.68 83.93,78.68 30.68,0 76.18,-32.6 78.72,-62.94 13.79,3.68 12.12,23.18 37.05,41.64 87.86,65.04 156.47,-33.36 164.92,-39.01 0,8.8 -0.18,17.53 0.36,26.3 0.78,12.37 3.77,8 -4.66,16.39l-81.59 75.98c-45.24,45.24 -81.98,75.83 -81.98,146.23 0,98.48 176.56,128.36 225.28,-5.57 18.87,-51.86 18.7,-124.66 18.7,-183.27 0,-57.63 -9.57,-41.13 21.01,-81.26 34.96,-45.88 63.62,-90.65 90.02,-143.44 9.86,-19.71 36.59,-72.67 38.49,-95.28 67.76,0 70.7,-16.16 61.86,27.74 -2.25,11.08 -3.89,19.5 -5.68,31.06 -4.86,31.75 -6.35,65.43 -6.35,98.55 0,126 111.21,198.22 174.23,106.04 5.14,-7.51 8.26,-14.79 14.65,-19.46 3.68,15.76 20.14,32.26 32.18,41.25 49.67,37.05 119.21,12.24 152.62,-32.22 5.51,-7.37 14.81,-23.75 19.81,-27.4 17.7,75.94 90.92,103.05 135.83,57.12l26.81 -41.39c1.37,16.53 0.17,42.76 9.33,51 12.35,11.16 77.4,22.76 84.16,-2.13 11.61,-42.73 -8.21,-104.68 31.41,-217.76l29.87 -67.17 7.88 0 4.86 79.07c5,45.62 0.84,188.45 60.73,188.45 19.61,0 41.75,3.66 42.18,-23.38 1.32,-77.73 19.39,-150.02 47.37,-220.16 3.87,-9.65 7.1,-23.16 15.38,-29.22 0,67.85 -2.08,139.65 7.44,197.12 17.81,107.51 114.55,145.36 160.4,65.1 10.17,-17.8 21.03,-55.67 21.03,-83.87 0,-27.09 -21.9,-29.15 -29.45,2.02 -5.36,22.19 -11.6,71.42 -41.37,71.42 -45.86,0 -44.59,-113.84 -44.59,-146.88 0,-27.78 0.76,-117.06 3.84,-140.65 2.94,-22.34 -9.9,-33.82 -25.64,-42.13 -56.31,-29.75 -70.7,-21.44 -89.86,26.52l-21.01 57.69c-6.2,22.03 -11.78,38.91 -17.39,61.31l-12.55 63.48c-6.04,-9.47 -4.5,-21.35 -5.43,-33.92l-5.14 -70.92c0.13,-30.22 5.84,-79.97 -13.58,-99.19 -11.13,-11.02 -32.99,-21.52 -54.56,-21.52 -20.09,0 -29.54,15.33 -36.71,31.49l-33.12 90.15c-3.04,9.15 -4.89,14.47 -7.87,23.63 -2.47,7.63 -3.93,14.29 -8.86,19.97l0 -146.88 -29.34 -12.62c-24.94,-6.06 -44,-16.83 -48.4,16.21 -4.5,33.83 -0.96,72.35 -0.96,106.57 0,69.98 7.99,131.02 -24.42,190.64 -21.49,39.51 -58.3,44.66 -69.43,-7.64 -13.69,-64.35 -3.21,-225.31 -3.21,-287.91 -19.97,-10.56 -20.47,-12.36 -48.72,-17.05 -25.82,-4.29 -32.59,5.23 -32.59,30.16 -5.06,-3.68 -9.24,-10.63 -15.02,-16.46 -79.53,-80.25 -197.47,15.73 -197.47,179.08l0 39.35c0,23.29 5.25,35.39 5.25,57.7 0,26.4 -33.83,70.12 -63.11,47.37 -18.18,-14.1 -28.71,-60.85 -28.71,-94.58 0,-35.98 4.39,-73.05 10.71,-104.7 9.25,-46.24 41.46,-125.42 -44.37,-112.63 -13.13,1.96 -70,10.98 -79.15,15.37 0,-19.23 5.14,-34.73 -3.52,-48.93 -15.72,-25.78 -58.22,-15.53 -74.61,2.27 -7.55,8.18 -16.31,23.96 -16.31,38.79 0,37.17 5.29,30.34 23.61,57.69 -9.36,40.21 -23.3,75.49 -40.21,109.29 -6.35,12.68 -41.37,84.46 -56.85,90.05 0,-71.07 2.64,-135.75 2.64,-204.58 0,-56.7 8.97,-68.63 -18.66,-78.41 -7.97,-2.82 -33.72,-8.99 -43.31,-7.32 -16.16,2.84 -19.37,12.85 -19.37,30.65 -5.03,-3.68 -9.24,-10.63 -15,-16.46 -56.83,-57.35 -131.61,-21.54 -164.27,44.43 -30.08,60.74 -33.22,110.39 -33.22,179.23 0,25.38 6.67,38.76 -2.23,63.34 -3.66,10.07 -6.72,15.88 -12.69,24.03 -5.93,8.12 -9.76,14.14 -19.41,17.52 -41.16,14.43 -49.63,-55.83 -49.63,-94.4 0,-39.81 -3.66,-107.76 0.4,-143.87 2.29,-20.38 2.93,-47 2.45,-71.42 -0.47,-24.92 -22.03,-27.82 -42.13,-31.34 -28.46,-4.98 -39.38,-3.59 -39.38,28.93 -5.53,-4.04 -8.72,-10.4 -15.02,-16.48 -4.93,-4.78 -11.61,-9.94 -17.58,-13.89 -77.36,-51.04 -156.84,31.46 -174.7,137.85 -6.35,37.76 -6.1,88.17 -17.96,121.07 -8.69,24.19 -36.36,73.08 -65.93,73.08 -50.32,0 -31.43,-233.61 -31.49,-262.3 -0.06,-25.24 2.88,-40.01 2.61,-65.58 -0.41,-38.03 -0.42,-28.85 39.36,-28.83 45.5,0.04 73.44,10.52 82.83,-19.5 2.64,-8.47 5.42,-21.79 1.49,-27.89 -6.61,-10.26 -101.49,-8.36 -121.05,-12.92zm-1038.8 110.15c0,-65.04 46.32,-176.86 86.56,-186.21 0,19.16 3.19,20.28 0.78,37.35 -6.47,45.83 5.99,390.4 -2.68,453.82 -1.83,13.35 0.15,26.59 -1.79,40.18 -5.13,35.66 -4.57,35 -15.06,68.94 -18.96,61.35 64.66,8.65 89.25,-60.34 14.51,-40.75 16.08,-102.06 16.08,-157.03l0 -398.67c0,-21.95 -39.53,-36.71 -62.96,-36.71 -47.03,0 -99.35,54.46 -126.32,88.78 -47.34,60.26 -88.39,171.67 -22.64,238.49 21.24,21.58 70.25,49.11 70.25,24.18 0,-10.98 -16.42,-30.37 -21.36,-44.2 -10.05,-28.15 -10.11,-37.44 -10.11,-68.58z"/>
 </g>
</svg>
